<svg xmlns="http://www.w3.org/2000/svg" viewBox="0 0 64 64"><rect width="64" height="64" rx="12" fill="#111111"/><path fill="#ffffff" transform="translate(-67.339 -147.476) scale(0.17654)" d="m614.76 1006.08q-9.31-13.65-45.17-34.93-12.52-7.4-15.18-12.63-2.8-5.23-2.8-15.57-0.01-8.05 2.49-12.01 2.49-3.96 7.34-3.95 4.46 0 6.37 2.92 1.92 2.95 1.92 13.66v15.31h49.88v-8.17q0.01-24.62-4.77-34.89-4.81-10.27-19.53-17.03-14.74-6.77-35.66-6.77-19.13 0.01-32.67 6.19-13.52 6.19-19.58 17.16-6.07 10.98-6.07 34.7 0.01 16.47 4.28 27.05 4.27 10.6 10.78 16.6 6.51 5.99 26.54 19.25 20.04 13.14 25.13 18.76 4.99 5.62 4.98 23.86 0 8.29-2.61 12.51-2.62 4.2-7.98 4.2-5.35 0-7.45-3.31-2.12-3.32-2.12-14.94v-25.13h-49.88v13.53q-0.01 23.21 4.73 35.85 4.71 12.63 19.95 20.8 15.25 8.17 36.82 8.17 19.65-0.01 34.44-7.08 14.82-7.09 19.97-17.55 5.16-10.47 5.17-32.54-0.01-30.36-9.32-44.02z"/><rect x="21.16" y="52.00" width="21.67" height="4.00" rx="1" fill="#F97706"/></svg>