<svg version="1.2" xmlns="http://www.w3.org/2000/svg" viewBox="395 785 1197 429" width="1197" height="429">
	<style>
		.s0 { fill: #ffffff } 
		.s1 { fill: #000000 } 
		.s2 { fill: #f39200 } 
	</style>
	<g id="Layer 1">
		<g id="logo">
			<path class="s1" d="m1488.32 1208.9h-989.11c-54.37 0-98.44-44.07-98.44-98.44l-0.01-221.63c0-54.37 44.08-98.44 98.45-98.44l989.11-0.01c54.37 0 98.44 44.08 98.44 98.45l0.01 221.62c0 54.37-44.08 98.45-98.45 98.45z"/>
			<g>
				<g>
					<path fill-rule="evenodd" class="s0" d="m614.76 1006.08q-9.31-13.65-45.17-34.93-12.52-7.4-15.18-12.63-2.8-5.23-2.8-15.57-0.01-8.05 2.49-12.01 2.49-3.96 7.34-3.95 4.46 0 6.37 2.92 1.92 2.95 1.92 13.66v15.31h49.88v-8.17q0.01-24.62-4.77-34.89-4.81-10.27-19.53-17.03-14.74-6.77-35.66-6.77-19.13 0.01-32.67 6.19-13.52 6.19-19.58 17.16-6.07 10.98-6.07 34.7 0.01 16.47 4.28 27.05 4.27 10.6 10.78 16.6 6.51 5.99 26.54 19.25 20.04 13.14 25.13 18.76 4.99 5.62 4.98 23.86 0 8.29-2.61 12.51-2.62 4.2-7.98 4.2-5.35 0-7.45-3.31-2.12-3.32-2.12-14.94v-25.13h-49.88v13.53q-0.01 23.21 4.73 35.85 4.71 12.63 19.95 20.8 15.25 8.17 36.82 8.17 19.65-0.01 34.44-7.08 14.82-7.09 19.97-17.55 5.16-10.47 5.17-32.54-0.01-30.36-9.32-44.02z"/>
					<path class="s0" d="m631.73 896.36v41.35h31.78v165.22h53.71v-165.23h31.9v-41.34z"/>
					<path fill-rule="evenodd" class="s0" d="m874.48 1102.93h-54.9l-2.17-27.94-0.72-9.19h-19.21l-1.46 16.78-1.77 20.35h-55.53l27.4-206.57h77.63l23.91 160.79zm-59.18-73.75q-4.08-35.08-8.18-86.76-8.22 59.33-10.32 86.76z"/>
					<path fill-rule="evenodd" class="s0" d="m999.32 954.16v17.98q-0.01 19.79-4.09 28.84-4.09 9.05-14.98 13.91-10.92 4.85-28.53 4.85h-14.42v83.19h-53.71v-206.57h54.1q21.94 0 33.75 3.44 11.79 3.45 17.74 9.95 5.92 6.52 8.02 15.76 2.12 9.26 2.12 28.65zm-44.91-5.49q-0.01-10.59-3.33-13.78-3.31-3.18-13.78-3.19v52.57q2.31 0.13 3.97 0.13 7.39 0 10.26-3.64 2.88-3.64 2.88-15.12z"/>
					<path class="s0" d="m1068.47 1059.58v-165.22h-53.72v206.57h86.37v-41.35z"/>
					<path class="s0" d="m1167.85 1061.58v-45.42h33.57v-39.29h-33.57v-39.17h35.86v-41.34h-89.57v206.57l93.14-0.01v-41.34z"/>
					<path fill-rule="evenodd" class="s0" d="m1341.32 1017.89q1.33 5.55 1.34 30.55v54.48h-49.89v-68.64q0.01-16.58-2.63-20.55-2.61-3.94-13.7-3.95v93.14h-53.71v-206.56h38.02q38.01 0 51.48 2.94 13.45 2.94 21.93 14.98 8.5 12.06 8.5 38.48-0.01 24.11-6.01 32.4-6 8.3-23.59 9.95 15.94 3.95 21.43 10.6 5.48 6.62 6.83 12.18zm-48.55-70.25q-0.01-9.82-3.51-12.88-3.51-3.06-12.82-3.06v45.93q9.05 0.01 12.69-2.49 3.64-2.49 3.64-16.13z"/>
					<path fill-rule="evenodd" class="s0" d="m1486.2 981.97v35.34q-0.01 31.13-1.48 44.08-1.46 12.95-9.18 23.68-7.72 10.71-20.86 16.45-13.15 5.74-30.63 5.74-16.58 0.01-29.78-5.43-13.2-5.41-21.25-16.27-8.04-10.82-9.57-23.59-1.54-12.76-1.54-44.66v-35.34q0.01-31.13 1.48-44.08 1.46-12.95 9.18-23.68 7.72-10.71 20.86-16.45 13.15-5.74 30.62-5.74 16.59-0.01 29.79 5.43 13.21 5.41 21.25 16.27 8.05 10.83 9.56 23.59 1.55 12.77 1.55 44.66zm-53.73-32.54q0-14.42-1.59-18.43-1.6-4.02-6.58-4.02-4.2 0-6.44 3.26-2.22 3.25-2.22 19.19v96.45q0 17.99 1.46 22.22 1.47 4.2 6.83 4.2 5.48-0.01 7.02-4.84 1.53-4.85 1.52-23.1z"/>
				</g>
				<path class="s2" d="m867.66 1057.15l6.82 45.78h-54.9l-2.17-27.94z"/>
				<path class="s2" d="m883.59 1051.49l53.71-19.07v70.51h-53.71z"/>
				<path class="s2" d="m1068.47 1059.58h32.65v41.35h-86.37v-98.01l53.72-19.07z"/>
				<path class="s2" d="m1167.85 1061.58h39.43v41.34l-93.14 0.01v-133.29l53.71-19.07v26.3h33.57v39.29h-33.57z"/>
				<path fill-rule="evenodd" class="s2" d="m1341.32 1017.89q1.33 5.55 1.34 30.55v54.48h-49.89v-68.64q0.01-16.58-2.63-20.55-2.61-3.94-13.7-3.95v93.14h-53.71v-171.84l89.5-31.78q13.45 2.94 21.93 14.98 8.5 12.06 8.5 38.48-0.01 24.11-6.01 32.4-6 8.3-23.59 9.95 15.94 3.95 21.43 10.6 5.48 6.62 6.83 12.18zm-48.55-70.25q-0.01-9.82-3.51-12.88-3.51-3.06-12.82-3.06v45.93q9.05 0.01 12.69-2.49 3.64-2.49 3.64-16.13z"/>
				<path fill-rule="evenodd" class="s2" d="m1486.2 981.97v35.34q-0.01 31.13-1.48 44.08-1.46 12.95-9.18 23.68-7.72 10.71-20.86 16.45-13.15 5.74-30.63 5.74-16.58 0.01-29.78-5.43-13.2-5.41-21.25-16.27-8.04-10.82-9.57-23.59-1.54-12.76-1.54-44.66v-35.34q0.01-31.13 1.48-44.08 1.46-12.95 9.18-23.68 7.72-10.71 20.86-16.45 13.15-5.74 30.62-5.74 16.59-0.01 29.79 5.43 13.21 5.41 21.25 16.27 8.05 10.83 9.56 23.59 1.55 12.77 1.55 44.66zm-53.73-32.54q0-14.42-1.59-18.43-1.6-4.02-6.58-4.02-4.2 0-6.44 3.26-2.22 3.25-2.22 19.19v96.45q0 17.99 1.46 22.22 1.47 4.2 6.83 4.2 5.48-0.01 7.02-4.84 1.53-4.85 1.52-23.1z"/>
			</g>
		</g>
	</g>
</svg>
